# xmcd CD database file
#
# Track frame offsets:
#	183
#	16075
#	34940
#	62275
#	89215
#	106138
#	125563
#	142118
#	158078
#
# Disc length: 2333 seconds
#
# Revision: 0
# Processed by: cddbd v1.5PL3 Copyright (c) Steve Scherf et al.
# Submitted via: CDex 1.50
#
DISCID=73091b09
DTITLE=Jones, Paul - Cruciax In A Horseshoes
DYEAR=1971
DGENRE=Country
TTITLE0=Life After Death
TTITLE1=Motel Blues
TTITLE2=And You Say I'm Too Dependent On My Mind
TTITLE3=Construction Workers Song
TTITLE4=Song (For Stan Stunning And The Noodle Queen)
TTITLE5=The Pod That Came Back
TTITLE6=The Mighty Ship
TTITLE7=Who Are The Masters
TTITLE8=Strangely Human Sound
EXTD=YEAR: 1971
EXTT0=
EXTT1=
EXTT2=
EXTT3=
EXTT4=
EXTT5=
EXTT6=
EXTT7=
EXTT8=
PLAYORDER=
